<?xml version="1.0" encoding="UTF-8"?>
<svg width="20px" height="20px" viewBox="0 0 20 20" version="1.1" xmlns="http://www.w3.org/2000/svg" xmlns:xlink="http://www.w3.org/1999/xlink">
    <title>87A7B7C3-0B3B-4539-913E-A9F9916A2A38</title>
    <g id="Franking" stroke="none" stroke-width="1" fill="none" fill-rule="evenodd" stroke-linecap="round" stroke-linejoin="round">
        <g id="XL.Franking---Autocomplete" transform="translate(-195.000000, -1236.000000)" stroke="#6C6C6C">
            <g id="Franking/Card/Desk-XL" transform="translate(165.000000, 1030.000000)">
                <g id="01-Atoms-/-Icons-/-Medium-/-Grey-/-Application-/-Services-near-you" transform="translate(30.000000, 206.000000)">
                    <path d="M10,0.666666667 C6.31428571,0.666666667 3.33333333,3.64761905 3.33333333,7.33333333 C3.33333333,12.3333333 10,19.7142857 10,19.7142857 C10,19.7142857 16.6666667,12.3333333 16.6666667,7.33333333 C16.6666667,3.64761905 13.6857143,0.666666667 10,0.666666667 L10,0.666666667 Z M10,9.71428571 C8.68571429,9.71428571 7.61904762,8.64761905 7.61904762,7.33333333 C7.61904762,6.01904762 8.68571429,4.95238095 10,4.95238095 C11.3142857,4.95238095 12.3809524,6.01904762 12.3809524,7.33333333 C12.3809524,8.64761905 11.3142857,9.71428571 10,9.71428571 L10,9.71428571 Z" id="Shape"></path>
                </g>
            </g>
        </g>
    </g>
</svg>